<svg id="visual" viewBox="0 0 960 540" width="960" height="540" xmlns="http://www.w3.org/2000/svg" xmlns:xlink="http://www.w3.org/1999/xlink" version="1.1"><rect x="0" y="0" width="960" height="540" fill="#121212"></rect><path d="M0 103L16 103.2C32 103.3 64 103.7 96 97C128 90.3 160 76.7 192 72.7C224 68.7 256 74.3 288 80.5C320 86.7 352 93.3 384 97.5C416 101.7 448 103.3 480 104.7C512 106 544 107 576 104.7C608 102.3 640 96.7 672 91.2C704 85.7 736 80.3 768 82.7C800 85 832 95 864 93.2C896 91.3 928 77.7 944 70.8L960 64L960 0L944 0C928 0 896 0 864 0C832 0 800 0 768 0C736 0 704 0 672 0C640 0 608 0 576 0C544 0 512 0 480 0C448 0 416 0 384 0C352 0 320 0 288 0C256 0 224 0 192 0C160 0 128 0 96 0C64 0 32 0 16 0L0 0Z" fill="#00fa7b"></path><path d="M0 92L16 92.3C32 92.7 64 93.3 96 89.2C128 85 160 76 192 69.5C224 63 256 59 288 59.3C320 59.7 352 64.3 384 70C416 75.7 448 82.3 480 81.3C512 80.3 544 71.7 576 71.2C608 70.7 640 78.3 672 81.7C704 85 736 84 768 81.7C800 79.3 832 75.7 864 77C896 78.3 928 84.7 944 87.8L960 91L960 0L944 0C928 0 896 0 864 0C832 0 800 0 768 0C736 0 704 0 672 0C640 0 608 0 576 0C544 0 512 0 480 0C448 0 416 0 384 0C352 0 320 0 288 0C256 0 224 0 192 0C160 0 128 0 96 0C64 0 32 0 16 0L0 0Z" fill="#00e4eb"></path><path d="M0 76L16 71.7C32 67.3 64 58.7 96 57.8C128 57 160 64 192 64.5C224 65 256 59 288 59.8C320 60.7 352 68.3 384 68.7C416 69 448 62 480 60.3C512 58.7 544 62.3 576 59.7C608 57 640 48 672 44C704 40 736 41 768 43.3C800 45.7 832 49.3 864 49.5C896 49.7 928 46.3 944 44.7L960 43L960 0L944 0C928 0 896 0 864 0C832 0 800 0 768 0C736 0 704 0 672 0C640 0 608 0 576 0C544 0 512 0 480 0C448 0 416 0 384 0C352 0 320 0 288 0C256 0 224 0 192 0C160 0 128 0 96 0C64 0 32 0 16 0L0 0Z" fill="#00bdff"></path><path d="M0 36L16 39C32 42 64 48 96 51.5C128 55 160 56 192 55C224 54 256 51 288 46.8C320 42.7 352 37.3 384 36.2C416 35 448 38 480 42.2C512 46.3 544 51.7 576 53.3C608 55 640 53 672 51.2C704 49.3 736 47.7 768 46.8C800 46 832 46 864 43.3C896 40.7 928 35.3 944 32.7L960 30L960 0L944 0C928 0 896 0 864 0C832 0 800 0 768 0C736 0 704 0 672 0C640 0 608 0 576 0C544 0 512 0 480 0C448 0 416 0 384 0C352 0 320 0 288 0C256 0 224 0 192 0C160 0 128 0 96 0C64 0 32 0 16 0L0 0Z" fill="#0087ff"></path><path d="M0 36L16 35.5C32 35 64 34 96 34C128 34 160 35 192 33.3C224 31.7 256 27.3 288 27.3C320 27.3 352 31.7 384 31.7C416 31.7 448 27.3 480 25.7C512 24 544 25 576 24C608 23 640 20 672 20.2C704 20.3 736 23.7 768 25.3C800 27 832 27 864 25.8C896 24.7 928 22.3 944 21.2L960 20L960 0L944 0C928 0 896 0 864 0C832 0 800 0 768 0C736 0 704 0 672 0C640 0 608 0 576 0C544 0 512 0 480 0C448 0 416 0 384 0C352 0 320 0 288 0C256 0 224 0 192 0C160 0 128 0 96 0C64 0 32 0 16 0L0 0Z" fill="#7b00fa"></path></svg>